<svg version="1.1" viewBox="0.0 0.0 636.8162729658793 299.3333333333333" fill="none" stroke="none" stroke-linecap="square" stroke-miterlimit="10" xmlns:xlink="http://www.w3.org/1999/xlink" xmlns="http://www.w3.org/2000/svg"><clipPath id="p.0"><path d="m0 0l636.8163 0l0 299.33334l-636.8163 0l0 -299.33334z" clip-rule="nonzero"/></clipPath><g clip-path="url(#p.0)"><path fill="#000000" fill-opacity="0.0" d="m0 0l636.8163 0l0 299.33334l-636.8163 0z" fill-rule="evenodd"/><path fill="#000000" fill-opacity="0.0" d="m167.26509 0.002624672l501.38586 0l0 288.53543l-501.38586 0z" fill-rule="evenodd"/><path fill="#000000" d="m226.56197 118.23034l0 -2.1875q3.71875 -0.21875 5.625 -0.875q1.90625 -0.65625 2.5625 -2.625q0.65625 -1.96875 0.65625 -5.90625l0 -54.21875q0 -4.046875 -0.65625 -5.953125q-0.65625 -1.921875 -2.5625 -2.625q-1.90625 -0.71875 -5.625 -0.828125l0 -2.1875q2.515625 0.109375 6.328125 0.21875q3.828125 0.109375 7.546875 0.109375q4.265625 0 7.984375 -0.109375q3.71875 -0.109375 6.015625 -0.21875l0 2.1875q-3.71875 0.109375 -5.640625 0.828125q-1.90625 0.703125 -2.5625 2.625q-0.65625 1.90625 -0.65625 5.953125l0 54.21875q0 3.9375 0.65625 5.90625q0.65625 1.96875 2.5625 2.625q1.921875 0.65625 5.640625 0.875l0 2.1875q-2.296875 -0.21875 -6.015625 -0.265625q-3.71875 -0.0625 -7.984375 -0.0625q-3.71875 0 -7.546875 0.0625q-3.8125 0.046875 -6.328125 0.265625zm-45.703125 0l0 -2.1875q3.71875 -0.21875 5.625 -0.875q1.921875 -0.65625 2.578125 -2.625q0.65625 -1.96875 0.65625 -5.90625l0 -54.21875q0 -4.046875 -0.65625 -5.953125q-0.65625 -1.921875 -2.578125 -2.625q-1.90625 -0.71875 -5.625 -0.828125l0 -2.1875q2.296875 0.109375 6.015625 0.21875q3.71875 0.109375 7.96875 0.109375q3.828125 0 7.59375 -0.109375q3.78125 -0.109375 6.296875 -0.21875l0 2.1875q-3.71875 0.109375 -5.640625 0.828125q-1.90625 0.703125 -2.5625 2.625q-0.65625 1.90625 -0.65625 5.953125l0 54.21875q0 3.9375 0.65625 5.90625q0.65625 1.96875 2.5625 2.625q1.921875 0.65625 5.640625 0.875l0 2.1875q-2.515625 -0.21875 -6.296875 -0.265625q-3.765625 -0.0625 -7.59375 -0.0625q-4.25 0 -7.96875 0.0625q-3.71875 0.046875 -6.015625 0.265625zm15.1875 -37.828125l0 -2.1875l43.1875 0l0 2.1875l-43.1875 0zm114.58992 -19.671875l0 45.6875q0 4.921875 1.796875 7.28125q1.796875 2.34375 6.5 2.34375l0 2.296875q-3.390625 -0.328125 -6.765625 -0.328125q-3.171875 0 -6.078125 0.328125q-2.890625 0.328125 -5.296875 1.203125l0 -12.90625q-2.734375 7.109375 -7.71875 10.125q-4.96875 3.0 -10.21875 3.0q-3.828125 0 -6.671875 -1.09375q-2.828125 -1.09375 -4.6875 -3.0625q-2.078125 -2.1875 -2.84375 -5.6875q-0.765625 -3.5 -0.765625 -8.640625l0 -27.4375q0 -4.921875 -1.75 -7.265625q-1.75 -2.359375 -6.5625 -2.359375l0 -2.28125q3.5 0.328125 6.78125 0.328125q3.171875 0 6.0625 -0.375q2.90625 -0.390625 5.296875 -1.15625l0 42.953125q0 3.390625 0.4375 6.234375q0.4375 2.84375 2.1875 4.59375q1.75 1.75 5.6875 1.75q6.453125 0 10.609375 -5.734375q4.15625 -5.75 4.15625 -14.046875l0 -22.640625q0 -4.921875 -1.75 -7.265625q-1.75 -2.359375 -6.5625 -2.359375l0 -2.28125q3.5 0.328125 6.78125 0.328125q3.171875 0 6.0625 -0.375q2.90625 -0.390625 5.3125 -1.15625zm49.957092 -0.328125q3.828125 0 6.671875 1.09375q2.84375 1.09375 4.703125 3.046875q2.078125 2.1875 2.84375 5.6875q0.765625 3.5 0.765625 8.640625l0 29.1875q0 4.59375 1.90625 6.234375q1.90625 1.640625 6.390625 1.640625l0 2.296875q-1.859375 -0.109375 -5.6875 -0.265625q-3.8125 -0.171875 -7.421875 -0.171875q-3.609375 0 -7.0625 0.171875q-3.4375 0.15625 -5.1875 0.265625l0 -2.296875q3.9375 0 5.578125 -1.640625q1.640625 -1.640625 1.640625 -6.234375l0 -31.59375q0 -3.390625 -0.4375 -6.234375q-0.4375 -2.84375 -2.1875 -4.59375q-1.75 -1.75 -5.6875 -1.75q-4.265625 0 -7.609375 2.625q-3.328125 2.625 -5.25 7.171875q-1.90625 4.53125 -1.90625 10.109375l0 24.265625q0 4.59375 1.640625 6.234375q1.640625 1.640625 5.578125 1.640625l0 2.296875q-1.75 -0.109375 -5.203125 -0.265625q-3.4375 -0.171875 -7.03125 -0.171875q-3.609375 0 -7.4375 0.171875q-3.828125 0.15625 -5.6875 0.265625l0 -2.296875q4.484375 0 6.390625 -1.640625q1.921875 -1.640625 1.921875 -6.234375l0 -34.21875q0 -4.921875 -1.75 -7.265625q-1.75 -2.359375 -6.5625 -2.359375l0 -2.28125q3.5 0.328125 6.78125 0.328125q3.171875 0 6.0625 -0.375q2.890625 -0.390625 5.296875 -1.15625l0 12.890625q2.84375 -7.109375 7.765625 -10.15625q4.921875 -3.0625 10.171875 -3.0625zm32.90625 0q3.828125 0 6.671875 1.09375q2.84375 1.09375 4.703125 3.046875q2.078125 2.1875 2.84375 5.6875q0.765625 3.5 0.765625 8.640625l0 29.1875q0 4.59375 1.90625 6.234375q1.90625 1.640625 6.390625 1.640625l0 2.296875q-1.859375 -0.109375 -5.6875 -0.265625q-3.8125 -0.171875 -7.421875 -0.171875q-3.609375 0 -7.0625 0.171875q-3.4375 0.15625 -5.1875 0.265625l0 -2.296875q3.9375 0 5.578125 -1.640625q1.640625 -1.640625 1.640625 -6.234375l0 -31.59375q0 -3.390625 -0.4375 -6.234375q-0.4375 -2.84375 -2.1875 -4.59375q-1.75 -1.75 -5.6875 -1.75q-6.34375 0 -10.546875 5.6875q-4.203125 5.6875 -4.203125 14.109375l-0.328125 -10.171875q2.9375 -7.546875 7.96875 -10.328125q5.03125 -2.78125 10.28125 -2.78125zm42.755188 58.59375q-7.109375 0 -10.34375 -3.546875q-3.2187805 -3.5625 -3.2187805 -9.46875q0 -4.59375 2.2344055 -7.59375q2.25 -3.0 5.75 -4.90625q3.5 -1.921875 7.375 -3.28125q3.875 -1.375 7.375 -2.6875q3.5 -1.3125 5.734375 -2.953125q2.25 -1.640625 2.25 -4.15625l0 -6.78125q0 -4.59375 -1.375 -7.0q-1.359375 -2.40625 -3.65625 -3.21875q-2.296875 -0.8125 -5.140625 -0.8125q-2.734375 0 -5.84375 0.765625q-3.109375 0.75 -4.96875 3.15625q2.078125 0.4375 3.59375 2.1875q1.53125 1.75 1.53125 4.484375q0 2.734375 -1.75 4.328125q-1.734375 1.578125 -4.46875 1.578125q-3.171875 0 -4.65625 -2.015625q-1.46875 -2.03125 -1.46875 -4.546875q0 -2.84375 1.421875 -4.59375q1.421875 -1.75 3.609375 -3.28125q2.515625 -1.734375 6.5 -2.984375q3.984375 -1.265625 9.015625 -1.265625q4.484375 0 7.65625 1.046875q3.171875 1.03125 5.25 2.984375q2.84375 2.625 3.71875 6.40625q0.875 3.765625 0.875 9.015625l0 30.390625q0 2.625 0.765625 3.890625q0.765625 1.25 2.625 1.25q1.53125 0 2.671875 -0.65625q1.15625 -0.65625 2.25 -1.640625l1.203125 1.859375q-2.296875 1.75 -4.375 2.90625q-2.078125 1.140625 -5.578125 1.140625q-5.6875 0 -7.546875 -2.953125q-1.859375 -2.953125 -1.859375 -6.78125q-3.5 5.796875 -7.9375 7.765625q-4.421875 1.96875 -9.21875 1.96875zm4.796875 -4.375q3.28125 0 6.453125 -1.90625q3.171875 -1.921875 5.90625 -6.40625l0 -21.421875q-1.640625 2.40625 -5.09375 3.828125q-3.4375 1.421875 -7.109375 3.125q-3.65625 1.6875 -6.28125 4.59375q-2.609375 2.890625 -2.609375 8.234375q0 5.03125 2.5 7.5q2.515625 2.453125 6.234375 2.453125zm71.72659 -54.21875q4.15625 0 6.9375 1.09375q2.796875 1.09375 4.65625 3.046875q2.078125 2.1875 2.9375 5.46875q0.875 3.28125 0.875 8.859375l0 29.1875q0 4.59375 1.90625 6.234375q1.921875 1.640625 6.40625 1.640625l0 2.296875q-1.859375 -0.109375 -5.6875 -0.265625q-3.8125 -0.171875 -7.421875 -0.171875q-3.609375 0 -7.0625 0.171875q-3.4375 0.15625 -5.1875 0.265625l0 -2.296875q3.9375 0 5.578125 -1.640625q1.640625 -1.640625 1.640625 -6.234375l0 -31.59375q0 -3.390625 -0.546875 -6.234375q-0.546875 -2.84375 -2.46875 -4.59375q-1.90625 -1.75 -5.84375 -1.75q-6.890625 0 -11.109375 5.75q-4.203125 5.734375 -4.203125 14.15625l0 24.265625q0 4.59375 1.640625 6.234375q1.640625 1.640625 5.578125 1.640625l0 2.296875q-1.75 -0.109375 -5.203125 -0.265625q-3.4375 -0.171875 -7.03125 -0.171875q-3.609375 0 -7.4375 0.171875q-3.828125 0.15625 -5.6875 0.265625l0 -2.296875q4.484375 0 6.390625 -1.640625q1.921875 -1.640625 1.921875 -6.234375l0 -34.21875q0 -4.921875 -1.75 -7.265625q-1.75 -2.359375 -6.5625 -2.359375l0 -2.28125q3.5 0.328125 6.78125 0.328125q3.171875 0 6.0625 -0.375q2.890625 -0.390625 5.296875 -1.15625l0 12.890625q2.84375 -7.4375 7.921875 -10.328125q5.09375 -2.890625 10.671875 -2.890625z" fill-rule="nonzero"/><path fill="#000000" d="m180.85884 171.8241q2.296875 0.109375 6.015625 0.21875q3.71875 0.109375 7.328125 0.109375q5.125 0 9.828125 -0.109375q4.703125 -0.109375 6.671875 -0.109375q13.234375 0 19.78125 5.46875q6.5625 5.46875 6.5625 13.5625q0 3.28125 -1.3125 7.0q-1.3125 3.703125 -4.53125 6.984375q-3.21875 3.28125 -8.796875 5.421875q-5.578125 2.125 -14.109375 2.125l-10.5 0l0 -2.1875l9.40625 0q7.765625 0 11.859375 -2.453125q4.109375 -2.46875 5.578125 -6.5625q1.484375 -4.109375 1.484375 -9.125q0 -8.640625 -4.109375 -13.390625q-4.09375 -4.765625 -14.046875 -4.765625q-5.03125 0 -6.5625 1.859375q-1.53125 1.859375 -1.53125 7.546875l0 54.21875q0 3.9375 0.65625 5.90625q0.65625 1.96875 2.5625 2.625q1.921875 0.65625 5.640625 0.875l0 2.1875q-2.515625 -0.21875 -6.296875 -0.265625q-3.765625 -0.0625 -7.59375 -0.0625q-4.25 0 -7.96875 0.0625q-3.71875 0.046875 -6.015625 0.265625l0 -2.1875q3.71875 -0.21875 5.625 -0.875q1.921875 -0.65625 2.578125 -2.625q0.65625 -1.96875 0.65625 -5.90625l0 -54.21875q0 -4.046875 -0.65625 -5.953125q-0.65625 -1.921875 -2.578125 -2.625q-1.90625 -0.71875 -5.625 -0.828125l0 -2.1875zm17.375 38.8125q5.90625 0.21875 9.296875 0.5q3.390625 0.265625 5.515625 0.484375q2.140625 0.21875 4.109375 0.546875q7.328125 1.203125 10.546875 4.4375q3.21875 3.21875 4.75 10.0l2.734375 11.140625q1.09375 4.8125 2.234375 6.953125q1.15625 2.125 3.5625 2.015625q1.859375 -0.109375 3.109375 -1.203125q1.265625 -1.09375 2.6875 -2.953125l1.640625 1.203125q-2.296875 3.390625 -4.765625 5.203125q-2.453125 1.796875 -6.9375 1.796875q-4.046875 0 -7.109375 -2.40625q-3.046875 -2.40625 -4.578125 -9.40625l-2.40625 -10.921875q-0.984375 -4.703125 -2.25 -8.140625q-1.25 -3.453125 -3.5 -5.421875q-2.234375 -1.96875 -6.609375 -1.96875l-11.8125 0l-0.21875 -1.859375zm78.61018 -19.234375q9.625 0 15.03125 5.84375q5.421875 5.84375 5.421875 18.203125l-38.59375 0l-0.109375 -2.078125l28.203125 0q0.21875 -5.359375 -0.875 -9.890625q-1.09375 -4.546875 -3.453125 -7.265625q-2.34375 -2.734375 -6.0625 -2.734375q-5.03125 0 -8.90625 5.03125q-3.875 5.015625 -4.640625 15.953125l0.328125 0.4375q-0.21875 1.640625 -0.328125 3.609375q-0.109375 1.96875 -0.109375 3.9375q0 7.4375 2.390625 12.796875q2.40625 5.34375 6.28125 8.140625q3.890625 2.78125 8.046875 2.78125q4.921875 0 9.078125 -2.40625q4.15625 -2.40625 7.0 -8.53125l2.1875 0.875q-1.203125 3.609375 -3.9375 7.0q-2.734375 3.390625 -6.890625 5.53125q-4.15625 2.125 -9.625 2.125q-7.875 0 -13.5 -3.609375q-5.625 -3.609375 -8.640625 -10.0q-3.0 -6.390625 -3.0 -14.703125q0 -9.625 3.0625 -16.5625q3.0625 -6.953125 8.625 -10.71875q5.578125 -3.765625 13.015625 -3.765625zm46.132477 -27.890625l0 75.546875q0 4.59375 1.90625 6.234375q1.921875 1.640625 6.40625 1.640625l0 2.296875q-1.859375 -0.109375 -5.640625 -0.265625q-3.765625 -0.171875 -7.578125 -0.171875q-3.71875 0 -7.546875 0.171875q-3.828125 0.15625 -5.6875 0.265625l0 -2.296875q4.484375 0 6.390625 -1.640625q1.921875 -1.640625 1.921875 -6.234375l0 -62.421875q0 -4.921875 -1.75 -7.265625q-1.75 -2.359375 -6.5625 -2.359375l0 -2.296875q3.5 0.328125 6.78125 0.328125q3.171875 0 6.0625 -0.375q2.90625 -0.390625 5.296875 -1.15625zm28.549072 86.484375q-7.109375 0 -10.34375 -3.546875q-3.21875 -3.5625 -3.21875 -9.46875q0 -4.59375 2.234375 -7.59375q2.25 -3.0 5.75 -4.90625q3.5 -1.921875 7.375 -3.28125q3.875 -1.375 7.375 -2.6875q3.5 -1.3125 5.734375 -2.953125q2.25 -1.640625 2.25 -4.15625l0 -6.78125q0 -4.59375 -1.375 -7.0q-1.359375 -2.40625 -3.65625 -3.21875q-2.296875 -0.8125 -5.140625 -0.8125q-2.734375 0 -5.84375 0.765625q-3.109375 0.75 -4.96875 3.15625q2.078125 0.4375 3.59375 2.1875q1.53125 1.75 1.53125 4.484375q0 2.734375 -1.75 4.328125q-1.734375 1.578125 -4.46875 1.578125q-3.171875 0 -4.65625 -2.015625q-1.46875 -2.03125 -1.46875 -4.546875q0 -2.84375 1.421875 -4.59375q1.421875 -1.75 3.609375 -3.28125q2.515625 -1.734375 6.5 -2.984375q3.984375 -1.265625 9.015625 -1.265625q4.484375 0 7.65625 1.046875q3.171875 1.03125 5.25 2.984375q2.84375 2.625 3.71875 6.40625q0.875 3.765625 0.875 9.015625l0 30.390625q0 2.625 0.765625 3.890625q0.765625 1.25 2.625 1.25q1.53125 0 2.671875 -0.65625q1.15625 -0.65625 2.25 -1.640625l1.203125 1.859375q-2.296875 1.75 -4.375 2.90625q-2.078125 1.140625 -5.578125 1.140625q-5.6875 0 -7.546875 -2.953125q-1.859375 -2.953125 -1.859375 -6.78125q-3.5 5.796875 -7.9375 7.765625q-4.421875 1.96875 -9.21875 1.96875zm4.796875 -4.375q3.28125 0 6.453125 -1.90625q3.171875 -1.921875 5.90625 -6.40625l0 -21.421875q-1.640625 2.40625 -5.09375 3.828125q-3.4375 1.421875 -7.109375 3.125q-3.65625 1.6875 -6.28125 4.59375q-2.609375 2.890625 -2.609375 8.234375q0 5.03125 2.5 7.5q2.515625 2.453125 6.234375 2.453125zm52.586 -70.84375l0 18.265625l16.1875 0l0 2.171875l-16.1875 0l0 42.3125q0 5.140625 1.859375 7.21875q1.859375 2.078125 5.140625 2.078125q3.28125 0 5.6875 -2.671875q2.40625 -2.6875 4.15625 -9.03125l2.1875 0.546875q-1.09375 6.34375 -4.328125 10.71875q-3.21875 4.375 -9.890625 4.375q-3.71875 0 -6.125 -0.9375q-2.390625 -0.921875 -4.25 -2.671875q-2.40625 -2.515625 -3.34375 -6.015625q-0.921875 -3.5 -0.921875 -9.296875l0 -36.625l-10.5 0l0 -2.171875l10.5 0l0 -16.734375q2.734375 -0.109375 5.234375 -0.4375q2.515625 -0.328125 4.59375 -1.09375zm33.764618 -9.1875q2.84375 0 4.921875 2.078125q2.078125 2.078125 2.078125 4.921875q0 2.84375 -2.078125 4.921875q-2.078125 2.078125 -4.921875 2.078125q-2.84375 0 -4.921875 -2.078125q-2.078125 -2.078125 -2.078125 -4.921875q0 -2.84375 2.078125 -4.921875q2.078125 -2.078125 4.921875 -2.078125zm5.484375 26.140625l0 47.328125q0 4.59375 1.90625 6.234375q1.921875 1.640625 6.40625 1.640625l0 2.296875q-1.859375 -0.109375 -5.640625 -0.265625q-3.765625 -0.171875 -7.578125 -0.171875q-3.71875 0 -7.546875 0.171875q-3.828125 0.15625 -5.6875 0.265625l0 -2.296875q4.484375 0 6.390625 -1.640625q1.921875 -1.640625 1.921875 -6.234375l0 -34.21875q0 -4.921875 -1.75 -7.265625q-1.75 -2.359375 -6.5625 -2.359375l0 -2.28125q3.5 0.328125 6.78125 0.328125q3.171875 0 6.0625 -0.375q2.890625 -0.390625 5.296875 -1.15625zm40.673737 -0.328125q7.0 0 12.578125 3.0625q5.578125 3.046875 8.90625 9.609375q3.328125 6.5625 3.328125 17.0625q0 10.484375 -3.328125 17.0q-3.328125 6.5 -8.90625 9.5625q-5.578125 3.0625 -12.578125 3.0625q-6.890625 0 -12.515625 -3.0625q-5.625 -3.0625 -8.96875 -9.5625q-3.328125 -6.515625 -3.328125 -17.0q0 -10.5 3.328125 -17.0625q3.34375 -6.5625 8.96875 -9.609375q5.625 -3.0625 12.515625 -3.0625zm0 2.1875q-6.234375 0 -10.21875 6.453125q-3.984375 6.4375 -3.984375 21.09375q0 14.640625 3.984375 21.046875q3.984375 6.390625 10.21875 6.390625q6.234375 0 10.21875 -6.390625q4.0 -6.40625 4.0 -21.046875q0 -14.65625 -4.0 -21.09375q-3.984375 -6.453125 -10.21875 -6.453125zm69.86487 -2.1875q4.15625 0 6.9375 1.09375q2.796875 1.09375 4.65625 3.046875q2.078125 2.1875 2.9375 5.46875q0.875 3.28125 0.875 8.859375l0 29.1875q0 4.59375 1.90625 6.234375q1.921875 1.640625 6.40625 1.640625l0 2.296875q-1.859375 -0.109375 -5.6875 -0.265625q-3.8125 -0.171875 -7.421875 -0.171875q-3.609375 0 -7.0625 0.171875q-3.4375 0.15625 -5.1875 0.265625l0 -2.296875q3.9375 0 5.578125 -1.640625q1.640625 -1.640625 1.640625 -6.234375l0 -31.59375q0 -3.390625 -0.546875 -6.234375q-0.546875 -2.84375 -2.46875 -4.59375q-1.90625 -1.75 -5.84375 -1.75q-6.890625 0 -11.109375 5.75q-4.203125 5.734375 -4.203125 14.15625l0 24.265625q0 4.59375 1.640625 6.234375q1.640625 1.640625 5.578125 1.640625l0 2.296875q-1.75 -0.109375 -5.203125 -0.265625q-3.4375 -0.171875 -7.03125 -0.171875q-3.609375 0 -7.4375 0.171875q-3.828125 0.15625 -5.6875 0.265625l0 -2.296875q4.484375 0 6.390625 -1.640625q1.921875 -1.640625 1.921875 -6.234375l0 -34.21875q0 -4.921875 -1.75 -7.265625q-1.75 -2.359375 -6.5625 -2.359375l0 -2.28125q3.5 0.328125 6.78125 0.328125q3.171875 0 6.0625 -0.375q2.890625 -0.390625 5.296875 -1.15625l0 12.890625q2.84375 -7.4375 7.921875 -10.328125q5.09375 -2.890625 10.671875 -2.890625zm48.096985 0q4.375 0 7.4375 1.421875q3.0625 1.421875 4.484375 2.609375q3.609375 2.953125 4.375 -3.921875l2.515625 0q-0.21875 3.0625 -0.328125 7.265625q-0.109375 4.203125 -0.109375 11.3125l-2.515625 0q-0.65625 -4.046875 -2.25 -7.875q-1.578125 -3.828125 -4.640625 -6.28125q-3.0625 -2.453125 -7.984375 -2.453125q-3.828125 0 -6.390625 2.125q-2.5625 2.125 -2.5625 6.28125q0 3.28125 1.953125 5.640625q1.96875 2.34375 5.140625 4.375q3.171875 2.015625 6.890625 4.421875q6.234375 4.046875 10.609375 8.203125q4.375 4.15625 4.375 10.921875q0 5.03125 -2.625 8.421875q-2.625 3.390625 -6.84375 5.140625q-4.203125 1.75 -9.234375 1.75q-2.40625 0 -4.546875 -0.390625q-2.125 -0.375 -4.078125 -1.140625q-1.09375 -0.546875 -2.25 -1.3125q-1.140625 -0.765625 -2.234375 -1.640625q-1.09375 -0.875 -1.96875 0.0625q-0.875 0.921875 -1.3125 3.65625l-2.515625 0q0.21875 -3.5 0.328125 -8.53125q0.109375 -5.03125 0.109375 -13.328125l2.515625 0q0.765625 6.109375 2.1875 10.703125q1.421875 4.59375 4.46875 7.171875q3.0625 2.5625 8.53125 2.5625q3.28125 0 6.5 -2.296875q3.234375 -2.296875 3.234375 -8.09375q0 -4.8125 -3.5 -7.859375q-3.5 -3.0625 -8.859375 -6.453125q-3.921875 -2.515625 -7.375 -5.03125q-3.4375 -2.515625 -5.578125 -5.6875q-2.125 -3.171875 -2.125 -7.65625q0 -4.921875 2.234375 -8.03125q2.25 -3.109375 5.953125 -4.578125q3.71875 -1.484375 7.984375 -1.484375z" fill-rule="nonzero"/><path fill="#ff6c7d" d="m155.93318 183.6217l-155.93242 -104.91602l0 -78.70399l155.93242 104.91602z" fill-rule="evenodd"/><path fill="#0eb69a" d="m7.572179E-4 288.53992l155.93242 -104.91603l0 -78.70398l-155.93242 104.916016z" fill-rule="evenodd"/><path fill="#0eb69a" d="m7.572179E-4 183.6217l155.93242 -104.91602l0 -78.70399l-155.93242 104.91602z" fill-rule="evenodd"/><path fill="#ff6c7d" d="m155.93318 288.53992l-155.93242 -104.91603l0 -78.70398l155.93242 104.916016z" fill-rule="evenodd"/></g></svg>